<svg xmlns="http://www.w3.org/2000/svg" width="16" height="16" viewBox="0 0 16 16">
  <rect width="16" height="16" fill="none"/>
  <rect x="0" y="0" width="2" height="2" fill="#14120b" opacity="0.35"/>
  <rect x="4" y="0" width="2" height="2" fill="#14120b" opacity="0.12"/>
  <rect x="8" y="0" width="2" height="2" fill="#14120b" opacity="0.28"/>
  <rect x="12" y="2" width="2" height="2" fill="#14120b" opacity="0.18"/>
  <rect x="2" y="4" width="2" height="2" fill="#14120b" opacity="0.22"/>
  <rect x="6" y="4" width="2" height="2" fill="#14120b" opacity="0.08"/>
  <rect x="10" y="4" width="2" height="2" fill="#14120b" opacity="0.32"/>
  <rect x="14" y="6" width="2" height="2" fill="#14120b" opacity="0.15"/>
  <rect x="0" y="8" width="2" height="2" fill="#14120b" opacity="0.2"/>
  <rect x="4" y="8" width="2" height="2" fill="#14120b" opacity="0.3"/>
  <rect x="8" y="10" width="2" height="2" fill="#14120b" opacity="0.1"/>
  <rect x="12" y="8" width="2" height="2" fill="#14120b" opacity="0.25"/>
  <rect x="2" y="12" width="2" height="2" fill="#14120b" opacity="0.16"/>
  <rect x="6" y="12" width="2" height="2" fill="#14120b" opacity="0.28"/>
  <rect x="10" y="14" width="2" height="2" fill="#14120b" opacity="0.12"/>
  <rect x="14" y="12" width="2" height="2" fill="#14120b" opacity="0.22"/>
</svg>
