<svg xmlns="http://www.w3.org/2000/svg" viewBox="0 0 32 32" fill="none">
  <circle cx="16" cy="16" r="16" fill="#0A0A0A"/>
  <path fill="#FAFAFA" d="M16 5c4.5 2.1 8 3.2 8 3.2v7c0 5.8-4 9.3-8 11.4-4-2.1-8-5.6-8-11.4v-7S11.5 7.1 16 5z"/>
  <path fill="#0A0A0A" d="M16 8.5c3.2 1.5 5.3 2.2 5.3 2.2v4.5c0 4-2.7 6.2-5.3 7.8-2.6-1.6-5.3-3.8-5.3-7.8v-4.5S12.8 10 16 8.5z"/>
  <path fill="#FAFAFA" d="M11.6 12.2h2.6c2 0 3.3 1.2 3.3 3.4s-1.3 3.4-3.3 3.4h-2.6v-6.8zm1.6 1.6v3.6h1c1 0 1.6-.6 1.6-1.8s-.6-1.8-1.6-1.8h-1z"/>
  <path fill="#FAFAFA" d="M21.4 14.2c-.25-.7-.95-1.2-1.9-1.2-1.35 0-2.3 1-2.3 2.6s.95 2.6 2.35 2.6c.9 0 1.6-.4 1.95-1.15l-1.35-.55c-.15.3-.45.5-.75.5-.55 0-.9-.5-.9-1.4s.35-1.4.9-1.4c.3 0 .55.15.65.4l1.35-.5z"/>
  <ellipse cx="16" cy="27.5" rx="1.4" ry="1.7" fill="#FAFAFA"/>
</svg>
