<svg xmlns="http://www.w3.org/2000/svg" viewBox="0 0 200 40" fill="none" role="img" aria-label="DripGuard">
  <circle cx="20" cy="20" r="18" fill="#0A0A0A"/>
  <path
    fill="#FAFAFA"
    d="M20 6.5
       C25.5 9.2 29 10.5 29 10.5
       V17
       C29 23 25.2 26.5 20 29
       C14.8 26.5 11 23 11 17
       V10.5
       C11 10.5 14.5 9.2 20 6.5Z"
  />
  <path
    fill="#0A0A0A"
    d="M20 10.5
       C23.5 12.2 25.5 13 25.5 13
       V17
       C25.5 20.8 23 23.2 20 24.8
       C17 23.2 14.5 20.8 14.5 17
       V13
       C14.5 13 16.5 12.2 20 10.5Z"
  />
  <text
    x="20"
    y="20.5"
    text-anchor="middle"
    fill="#FAFAFA"
    font-family="ui-sans-serif, system-ui, sans-serif"
    font-size="8"
    font-weight="700"
    letter-spacing="-0.06em"
  >DG</text>
  <text
    x="48"
    y="27"
    fill="#0A0A0A"
    font-family="ui-sans-serif, system-ui, -apple-system, Segoe UI, sans-serif"
    font-size="17"
    font-weight="600"
    letter-spacing="-0.03em"
  >DripGuard</text>
</svg>
